<svg xmlns="http://www.w3.org/2000/svg" viewBox="0 0 160 100"><path d="M8 99c-3.8 0-7-3.2-7-7V8c0-3.8 3.2-7 7-7h144c3.8 0 7 3.2 7 7v84c0 3.8-3.2 7-7 7H8z" fill-rule="evenodd" clip-rule="evenodd" fill="#fff"/><path d="M152 2c3.3 0 6 2.7 6 6v84c0 3.3-2.7 6-6 6H8c-3.3 0-6-2.7-6-6V8c0-3.3 2.7-6 6-6h144zm0-2H8C3.6 0 0 3.6 0 8v84c0 4.4 3.6 8 8 8h144c4.4 0 8-3.6 8-8V8c0-4.4-3.6-8-8-8z" fill="#e6e6e6"/><g fill-rule="evenodd" clip-rule="evenodd"><path d="M34.3 35.8c1.5-.5 3.2-.8 4.8-.8 7.3 0 13.4 5.1 14.8 11.8l10.3-2.1c-2.4-11.5-12.7-20.1-25.1-20.1-2.8 0-5.6.5-8.1 1.3l3.3 9.9z" fill="#ffca05"/><path d="M22.3 69l7.1-7.8c-3.2-2.7-5.1-6.7-5.1-11.2s2-8.4 5.1-11.2L22.3 31c-5.4 4.6-8.7 11.4-8.7 19s3.4 14.3 8.7 19" fill="#00a4df"/><path d="M53.9 53.2C52.5 59.9 46.4 65 39.1 65c-1.6 0-3.2-.3-4.8-.8L31 74c2.6.8 5.3 1.3 8.1 1.3 12.4 0 22.7-8.6 25.1-20.1l-10.3-2z" fill="#ee4123"/><path d="M93.4 58.3l-.3-.2c-.8 1.4-2.2 2.5-3.8 3.2-3.2 1.4-6.1 1-8.2-.8l-.2.3-3.6 5.4c.9.6 1.8 1.1 2.8 1.6 4 1.7 8 1.6 12-.2 2.9-1.3 5.1-3.2 6.7-5.6.1 0-5.4-3.7-5.4-3.7zM82.2 45c-3.3 1.4-5 4.6-4.7 8.3l14.1-6.1c-2.4-2.9-5.5-3.8-9.4-2.2zm-9.3 16.4c-.4-.7-.8-1.4-1.1-2.1-1.6-3.8-1.7-7.7-.3-11.5 1.5-4.1 4.4-7.3 8.1-8.9 4.7-2 9.9-1.6 14.4 1.1 2.9 1.6 4.9 4.2 6.4 7.8.2.5.4 1 .5 1.4l-28 12.2zM110.7 31v29.9l4.6 1.9-2.6 6.2-5.1-2.1c-1.1-.5-1.9-1.3-2.5-2.1-.6-.9-1-2.1-1-3.7V31h6.6zm12 22.3c0 2.4 1 4.8 2.9 6.4l-4.7 5.3c-3.3-3-5.2-7.2-5.2-11.7 0-4.5 1.9-8.7 5.3-11.7l4.7 5.3c-1.9 1.6-3 4-3 6.4zm8.5 8.5c4.1 0 7.5-2.9 8.3-6.8l7 1.4c-1.5 7.1-7.7 12.5-15.3 12.5-1.7 0-3.3-.3-4.9-.8l2.3-6.8c.7.3 1.6.5 2.6.5zm0-24.1c7.5 0 13.8 5.4 15.2 12.5l-7 1.4c-.8-3.9-4.2-6.8-8.3-6.8-.9 0-1.8.1-2.7.4l-2.2-6.8c1.6-.4 3.3-.7 5-.7z"/></g></svg>