<svg xmlns="http://www.w3.org/2000/svg" viewBox="0 0 160 100"><path d="M8 99c-3.8 0-7-3.2-7-7V8c0-3.8 3.2-7 7-7h144c3.8 0 7 3.2 7 7v84c0 3.8-3.2 7-7 7H8z" fill-rule="evenodd" clip-rule="evenodd" fill="#fff"/><path d="M152 2c3.3 0 6 2.7 6 6v84c0 3.3-2.7 6-6 6H8c-3.3 0-6-2.7-6-6V8c0-3.3 2.7-6 6-6h144zm0-2H8C3.6 0 0 3.6 0 8v84c0 4.4 3.6 8 8 8h144c4.4 0 8-3.6 8-8V8c0-4.4-3.6-8-8-8z" fill="#e6e6e6"/><path d="M69 79H13.3v-.1c0-.1.1-.6.2-1.1.1-.5.3-1.3.4-1.8.1-.5.3-1.3.4-1.8.1-.5.3-1.4.4-1.9s.3-1.4.4-1.9.3-1.3.4-1.8c.1-.5.3-1.4.4-1.9.1-.6.3-1.4.4-1.9.1-.5.3-1.2.3-1.7.1-.4.2-1 .3-1.3.1-.3.2-1.1.4-1.8s.3-1.5.4-1.8c.1-.3.2-1.1.4-1.8s.3-1.5.4-1.8c.1-.3.2-1.1.4-1.8s.3-1.5.4-1.8c0-.3.2-.9.3-1.5.1-.6.3-1.6.5-2.3.2-.7.4-2 .6-2.8.2-.8.4-1.8.4-2.2.1-.4.2-1 .3-1.5.1-.4.3-1.2.4-1.8.1-.5.3-1.4.4-2 .1-.5.3-1.4.4-1.9.1-.5.3-1.3.4-1.8s.3-1.4.4-2 .3-1.5.4-2c.1-.5.3-1.1.4-1.3.1-.2.3-.8.5-1.2l.4-.7.3-.5c.2-.3.5-.6.8-.9.2-.2.6-.6.9-.8.2-.2.6-.5.8-.6.2-.1.5-.4.8-.5.3-.1.6-.3.8-.4.2-.1.6-.2.8-.4.3-.1.8-.3 1.2-.4.4-.1 1.1-.3 1.5-.4.5-.1 1.2-.2 1.7-.3l.8-.1h111.4v.1c0 .1-.1.6-.2 1.1-.1.5-.3 1.4-.4 1.9-.1.6-.3 1.4-.4 1.8-.1.4-.3 1.2-.4 1.8-.1.6-.3 1.5-.4 2-.1.5-.3 1.3-.4 1.8-.1.5-.3 1.3-.4 1.8s-.3 1.3-.4 1.8c-.1.5-.3 1.3-.4 1.9-.1.6-.3 1.4-.4 2s-.3 1.3-.4 1.8-.3 1.3-.4 1.9c-.1.6-.3 1.4-.4 2-.1.5-.3 1.3-.4 1.8-.1.4-.3 1.3-.4 1.9-.1.6-.3 1.4-.4 1.9-.1.4-.3 1.2-.4 1.8-.1.5-.3 1.4-.4 2s-.3 1.4-.4 1.8-.3 1.2-.4 1.8c-.1.6-.3 1.4-.4 2-.1.5-.3 1.3-.4 1.8s-.3 1.3-.4 1.9c-.1.5-.3 1.4-.4 2-.1.5-.3 1.3-.4 1.8-.1.4-.3 1.3-.4 1.8-.1.6-.3 1.4-.4 1.9l-.2.9-.2.6c-.1.4-.3.8-.4 1.1-.1.2-.3.6-.5.9-.2.3-.4.6-.5.7l-.8.8-.6.6-.5.4c-.3.2-.6.4-.7.5-.1.1-.5.2-.8.4-.3.2-.8.4-1.1.5-.3.1-.8.3-1.1.4-.4.1-.7.2-.9.2s-.5.1-.9.2-1.1.2-1.6.3l-1 .1L69 79zM49.2 64.6h1.4v-.4c0-.1 0-.5.1-.9s.2-1.2.3-1.9c.1-.7.3-1.7.4-2.3.1-.6.2-1.3.2-1.6 0-.3.1-.6.1-.6s.1.1.2.3l.2.3.4.4.4.4.5.2.5.2.5.1.5.1h1.4l.8-.2.8-.2.4-.2c.2-.1.6-.3.9-.5l.5-.3.4-.4c.2-.2.6-.6.8-.9.2-.2.3-.4.3-.5 0 0 .1-.2.2-.3l.5-1c.2-.4.4-1 .5-1.5l.3-.8.1-.7c.1-.4.2-1 .2-1.4l.1-.7v-1.2l-.1-.6-.1-.6-.2-.5-.2-.5-.4-.5-.4-.5-.5-.3-.5-.3-.6-.1-.9-.2h-1.8l-.6.1-.5.1-.5.1-.5.2-.8.4c-.2.1-.4.3-.4.3-.1.1-.2.1-.3.2l-.2.1.1-.6c.1-.3.1-.6.1-.7v-.1h-2.4l-.2 1.4c-.1.8-.3 1.9-.4 2.6-.1.7-.3 1.7-.4 2.2-.1.7-.3 1.7-.4 2.4-.1.6-.3 1.7-.4 2.3-.1.6-.3 1.5-.4 2s-.3 1.4-.4 2c-.1.6-.3 1.6-.4 2.2-.1.6-.3 1.5-.4 2.1-.1.6-.2 1.1-.2 1.2v.2h1.4v-.1zm6.2-7.8h-.6l-.4-.1-.4-.1-.4-.2-.4-.2-.3-.2-.3-.2-.2-.3c-.1-.2-.2-.5-.2-.7l-.1-.4v-1.2l.2-.9c.1-.5.3-1.4.4-2.1.1-.6.3-1.6.4-2.1l.2-.9.4-.3c.2-.2.5-.4.7-.5l.4-.2.5-.1.5-.1H57l.5.1.5.1.3.2.3.2.3.3.3.3.2.3c.1.2.2.5.3.7l.1.4v2.6l-.2.8c-.1.4-.3 1.1-.4 1.4l-.2.7-.3.5c-.2.3-.4.7-.5.9-.1.2-.4.4-.5.6-.1.1-.3.3-.5.4l-.2.2-.6.2-.4-.1h-.6zm14 1.9h.7l.7-.1c.4 0 1.1-.1 1.5-.2.4-.1 1.1-.2 1.6-.3l.8-.2v-.3c0-.2.1-.7.2-1.1l.2-.8-.3.1c-.1.1-.6.2-1 .4l-.7.2-.7.1-.7.1h-2.4l-.3-.1c-.2-.1-.5-.2-.7-.3L68 56l-.3-.2-.3-.2-.2-.4-.2-.3-.1-.5-.2-.4v-1.6l.1-.8.1-.8h9.6l.1-.5c.1-.3.2-.8.2-1.2l.1-.7v-1.2l-.1-.5-.1-.5-.2-.3c-.1-.2-.3-.4-.4-.5l-.4-.4c-.1-.1-.4-.3-.6-.3l-.3-.2-.6-.1-.6-.1-.7-.3h-2.2l-.7.2-.8.2-.5.2c-.3.1-.7.3-.9.5-.2.1-.6.4-.7.5-.2.1-.5.4-.6.6s-.5.5-.6.7-.4.6-.5.9c-.1.3-.3.6-.4.8-.1.2-.2.6-.3.8-.1.3-.2.8-.3 1.2s-.2 1-.3 1.4l-.1.7v2l.1.4c.1.2.2.6.2.8.1.2.2.5.3.7.1.2.3.4.5.6.2.2.4.4.6.5.2.1.5.3.7.4l.4.2.6.1c.3.1.8.2 1 .2s.6.1 1 .1zm1.3-9.5h-3.4s.1-.3.2-.5c.1-.3.3-.7.4-.9l.2-.4.4-.4.4-.4.4-.2c.2-.1.6-.2.7-.3.1 0 .6-.1.9-.1h.7l.5.1.5.1.4.2.4.2.2.2c.1.1.2.3.3.4l.1.2.1.4.1.4-.1.7-.1.7h-3.3v-.4zm20.2 9.5h.7l.8-.1c.5-.1 1.1-.1 1.4-.2.3-.1.8-.2 1-.2.3-.1.5-.2.6-.2 0 0 .1-.3.2-.7.1-.3.2-.8.2-1 0-.2.1-.4 0-.4h-.1s-.4.2-.7.3l-.6.2-.9.2-.9.2H91l-.4-.2-.4-.2-.3-.3-.3-.3-.2-.4-.2-.4-.1-.6-.1-.6v-1.4l.1-.9.1-.9.1-.5c.1-.3.2-.6.2-.7 0-.1.2-.4.3-.7s.3-.7.5-1l.3-.4.3-.3.3-.3.3-.2.3-.2.4-.1c.2-.1.7-.2.9-.2l.5-.1H95l.9.2.9.2.4.1c.2.1.4.1.4.1s.1-.3.1-.6.1-.8.2-1.1c.1-.3.1-.6.1-.6s-.3-.1-.6-.1-1.1-.1-1.8-.1h-2.4l-.9.1-.7.1-.6.2-.4.2-.8.4c-.2.1-.4.3-.5.3-.1.1-.4.4-.7.6l-.6.5-.3.4c-.2.2-.4.7-.6 1.1l-.3.7-.2.7c-.1.4-.3 1-.4 1.4l-.2.7-.1.6-.1.6v1.6l.1.5.1.5.2.5.2.5.2.4.2.4.4.4.4.4.4.2.4.2.5.1c.3.1.7.2.9.2.2.1.7.2 1.1.2zm11.1-.1h.9l.6-.1.6-.1.4-.2c.2-.1.5-.3.7-.4.2-.1.5-.4.7-.6s.5-.5.6-.7c.1-.2.3-.3.3-.3s0 .3-.1.7c-.1.4-.1.9-.1 1.1v.4h2.4v-2l.2-1.2c.1-.7.3-1.7.3-2.3.1-.6.3-1.5.4-2.1s.3-1.5.4-2.1l.2-1v-1.6l-.2-.4-.2-.4-.3-.2-.3-.2-.4-.2-.4-.2-.6-.1-.6-.1-.9-.1-.9-.1-1.1.1c-.6 0-1.5.1-1.9.2l-.8.1h-1.2l-.1.4c0 .2-.2.7-.3 1.1-.1.4-.2.7-.2.8s.3-.1.7-.1c.3-.1 1.1-.2 1.6-.3l1-.2h1.8l.6.1.6.1.4.2.4.2.2.3.2.3v1l-.1.6-.1.6h-4.8l-.8.2c-.4.1-.9.3-1.1.4-.2.1-.3.1-.3.1s-.3.1-.6.3l-.5.3-.3.1c-.2.2-.5.6-.6.7s-.3.6-.5.9l-.2.5-.1.6-.1.6v1.2l.1.5.1.5.2.3c.1.2.3.5.4.6l.2.3.4.2.4.2.5.1c.3.1.6.2.9.2l.4.1.9.1zm.8-1.9h-.5l-.4-.1c-.2-.1-.5-.2-.7-.2l-.3-.2-.2-.2c-.1-.1-.2-.3-.3-.5l-.1-.3V54l.1-.4c.1-.2.2-.6.3-.8l.2-.4.4-.4.4-.4.4-.2.4-.2.5-.1.5-.1h3.6l-.1.5c0 .3-.2.8-.3 1.2-.1.4-.3.9-.4 1.2-.1.3-.2.5-.2.6 0 0-.1.2-.2.5l-.2.4-.4.4c-.2.2-.4.4-.5.4 0 0-.2.1-.3.2l-.2.2-.5.2-.5.2-.5-.3zm22 2h.6l.6-.1c.3-.1.8-.1.9-.2.2-.1.5-.2.7-.3l.4-.2.3-.3.3-.3.4-.5c.2-.3.4-.5.4-.6v-.1.3c0 .2-.1.5-.1.7s-.1.5-.1.8v.5h2.6v-1l.2-1.7c.1-.9.3-2.2.4-2.8.1-.6.2-1.4.3-1.9.1-.4.2-1.2.3-1.8.1-.5.3-1.5.4-2.1.1-.6.3-1.6.4-2.2.1-.6.3-1.5.4-2 .1-.5.3-1.4.4-2s.3-1.4.4-1.9l.2-.8v-.1h-2.8v.4c0 .2-.1 1-.2 1.7s-.3 1.8-.4 2.5-.2 1.3-.2 1.4v.2h-.1c-.1 0-.4-.1-.8-.2l-.6-.2-1.1.1-.9-.1-.7.1-.7.1-.7.2-.7.2-.6.3-.6.3-.5.3-.5.3-.4.4c-.2.2-.5.6-.7.9l-.3.4-.4.8c-.2.4-.4 1-.5 1.2-.1.3-.3.8-.4 1.3l-.2.8-.1 1-.1 1 .1.8.1.8.1.3c0 .2.2.5.2.7l.1.4.3.4.3.4.3.2.3.2.4.2c.2.1.6.3.8.3.2.1.6.1.8.2.1.2.6.3 1 .3zm1.1-2h-.5l-.3-.1c-.2 0-.5-.1-.7-.2l-.3-.1-.3-.2-.3-.2-.2-.4-.2-.4-.1-.4-.1-.4v-1.8l.1-.8.1-.8.2-.5.2-.6s.1-.3.2-.5.3-.6.4-.9c.1-.2.3-.6.5-.8s.4-.5.6-.7c.2-.2.5-.4.6-.5l.3-.2.5-.2.5-.2h2.2l.6.2c.4.1.7.2.8.3l.2.1v.2c0 .1-.1.5-.2 1s-.2 1.3-.3 1.9c-.1.6-.3 1.5-.4 2-.1.5-.2 1.1-.3 1.4s-.2.7-.2.9-.2.5-.3.7c-.1.2-.3.5-.4.7-.1.2-.3.4-.4.5-.1.1-.4.3-.6.5l-.4.2-.5.2-.5.2-.5-.1zm-99.2 1.6h1.6l.1-.7c.1-.4.2-1.2.3-1.7.1-.5.3-1.5.4-2.2.1-.7.3-1.7.4-2.3.1-.6.2-1.4.3-1.9.1-.5.2-.9.2-.9h8.8l.1.4c0 .2-.2.9-.3 1.5-.1.6-.3 1.6-.4 2.2-.1.6-.3 1.5-.4 2-.1.5-.3 1.4-.4 2.2l-.2 1.4v.1h3.2l.1-.4c0-.2.1-.6.1-.9 0-.3.1-.9.2-1.3s.2-1.3.3-2 .3-1.7.4-2.4c.1-.7.3-1.7.4-2.2.1-.5.3-1.4.4-2 .1-.6.3-1.5.4-2.2.1-.6.3-1.5.4-2.1.1-.5.3-1.5.4-2.1.1-.6.3-1.4.3-1.6l.1-.5h-3.4v.3c0 .2-.1.7-.2 1.1-.1.4-.2 1.2-.3 1.7-.1.5-.3 1.5-.4 2.1-.1.7-.3 1.6-.3 2l-.1.7h-6.8c-1.1 0-2.1-.1-2.1-.1s0-.3.1-.6.2-.9.2-1.2c.1-.4.2-1.1.3-1.6.1-.5.2-1.1.2-1.4 0-.3.1-.7.2-1 .1-.3.2-.8.2-1.3.1-.4.2-.8.2-.9v-.1h-3.4l-.1.6c-.1.3-.1.8-.2 1s-.2 1-.3 1.7c-.1.7-.3 1.8-.4 2.3-.1.6-.3 1.6-.4 2.3-.1.7-.3 1.8-.4 2.4-.1.6-.3 1.5-.4 2-.1.5-.3 1.3-.4 2-.1.6-.3 1.5-.4 1.9-.1.4-.2 1-.2 1.1 0 .2-.1.7-.2 1.2s-.2.9-.2 1v.1l2 .3zm18.1 0h1.5v-.4c0-.1.1-.8.2-1.5s.3-1.8.4-2.5.3-1.7.4-2.2c.1-.5.3-1.4.4-2 .1-.6.3-1.4.4-1.9.1-.5.3-1.5.4-2.1.1-.7.3-1.2.3-1.3v-.1h-3l-.1.9c-.1.5-.2 1.4-.3 2.1-.1.7-.3 1.7-.4 2.3-.1.6-.3 1.5-.4 2.1-.1.6-.3 1.5-.4 2-.1.5-.3 1.4-.4 2s-.3 1.3-.3 1.7c-.1.4-.1.7-.2.8v.2h1.5v-.1zm33.9 0h1.4v-.6c0-.3.1-1 .2-1.5s.2-1.5.3-2.2c.1-.7.3-1.9.5-2.6.1-.7.3-1.5.4-1.6.1-.2.1-.3.1-.4 0-.1.1-.3.2-.6s.4-.7.5-1l.3-.5.4-.4.4-.4.5-.2.5-.2H86l.4.1c.2.1.4.1.4.1v-.2c0-.1.1-.5.2-1s.2-.8.2-.9c0 0-.2-.1-.5-.2-.1.1-.5 0-.7 0h-.7c-.2 0-.6.1-.8.2-.2.1-.5.2-.7.4-.2.1-.5.4-.7.6-.2.2-.5.5-.7.8-.2.3-.4.5-.4.6l-.1.1.1-.3c0-.1.1-.6.2-1.1.1-.4.2-.9.2-.9v-.1h-2.7v.2c0 .1-.1.6-.2 1.2s-.2 1.5-.3 2.1c-.1.6-.3 1.6-.4 2.3-.1.7-.3 1.6-.4 2.1-.1.5-.3 1.4-.4 2-.1.6-.3 1.5-.4 2.1-.1.6-.2 1.3-.3 1.5-.1.3-.1.5-.1.5v.1l1.5-.1zm34.2 0h1.5v-1l.2-1.1c.1-.6.2-1.6.3-2.2s.2-1.3.3-1.6c0-.3.2-1 .3-1.5s.2-1.1.3-1.2c.1-.2.1-.3.1-.4 0 0 .1-.4.3-.7l.3-.6.4-.5.4-.5.4-.3c.2-.2.6-.4.8-.5l.4-.2h1.6l.3.1.3.1h.2V46c0-.1.1-.6.2-1l.2-.8-.2-.1c-.1 0-.3-.1-.5-.2l-.3-.1h-1.2l-.5.2-.5.2-.4.2-.4.2-.5.5-.5.5-.3.4c-.1.2-.3.4-.3.4l.2-1c.1-.5.2-1 .2-1.1v-.2h-2.4s-.1.5-.1 1c-.1.5-.2 1.5-.3 2.2-.1.7-.3 1.8-.4 2.5-.1.7-.3 1.6-.4 2.1s-.3 1.4-.4 2-.3 1.5-.4 2.1c-.1.6-.3 1.3-.3 1.6l-.1.6 1.2.1zM47.7 41.9h.4l.3-.1.3-.1.3-.3.3-.3.2-.4.2-.4v-1.2l-.1-.2-.1-.2-.2-.1-.2-.1h-1l-.3.2-.3.2H47l-.2.2-.2.4-.2.4v1.2l.1.3.1.3.3.1.3.1h.5z" fill="#b3131b"/></svg>