<?xml version="1.0" encoding="utf-8"?>
<!-- Generator: Adobe Illustrator 24.0.1, SVG Export Plug-In . SVG Version: 6.00 Build 0)  -->
<svg version="1.1" id="Camada_1" xmlns="http://www.w3.org/2000/svg" xmlns:xlink="http://www.w3.org/1999/xlink" x="0px" y="0px"
	 viewBox="0 0 1024 276.7" style="enable-background:new 0 0 1024 276.7;" xml:space="preserve">
<style type="text/css">
	.st0{fill:#E50914;}
</style>
<path class="st0" d="M140.8,258.9c-15.4,2.7-31.1,3.5-47.3,5.7L44.1,119.7v151.1c-15.4,1.6-29.5,3.8-44.1,5.9V0h41.1l56.2,157V0
	h43.5L140.8,258.9L140.8,258.9z M225.9,101.3c16.8,0,42.4-0.8,57.8-0.8v43.2c-19.2,0-41.6,0-57.8,0.8v64.3
	c25.4-1.6,50.8-3.8,76.5-4.6v41.6l-119.7,9.5V0h119.7v43.2h-76.5C225.9,43.2,225.9,101.3,225.9,101.3z M463.2,43.2h-44.9v198.9
	c-14.6,0-29.2,0-43.2,0.5V43.2h-44.9V0h133C463.2,0,463.2,43.2,463.2,43.2z M533.5,98.4h59.2v43.2h-59.2v98.1h-42.4V0h120.8v43.2
	h-78.4C533.5,43.2,533.5,98.4,533.5,98.4z M682.1,201.9c24.6,0.5,49.5,2.4,73.5,3.8v42.7c-38.6-2.4-77.3-4.9-116.8-5.7V0h43.2V201.9
	L682.1,201.9z M792.1,251.3c13.8,0.8,28.4,1.6,42.4,3.2V0h-42.4V251.3z M1024,0l-54.9,131.6l54.9,145.1c-16.2-2.2-32.4-5.1-48.6-7.8
	l-31.1-80l-31.6,73.5c-15.7-2.7-30.8-3.5-46.5-5.7L921.8,130L871.6,0h46.5l28.4,72.7L976.7,0L1024,0L1024,0z"/>
</svg>
