<svg xmlns="http://www.w3.org/2000/svg" viewBox="0 0 160 100"><path d="M8 99c-3.8 0-7-3.2-7-7V8c0-3.8 3.2-7 7-7h144c3.8 0 7 3.2 7 7v84c0 3.8-3.2 7-7 7H8z" fill-rule="evenodd" clip-rule="evenodd"/><path d="M152 2c3.3 0 6 2.7 6 6v84c0 3.3-2.7 6-6 6H8c-3.3 0-6-2.7-6-6V8c0-3.3 2.7-6 6-6h144zm0-2H8C3.6 0 0 3.6 0 8v84c0 4.4 3.6 8 8 8h144c4.4 0 8-3.6 8-8V8c0-4.4-3.6-8-8-8z" fill="#e6e6e6"/><path d="M50.2 86.2v-4.8c0-1.8-1.2-3-3-3.1-1 0-2 .3-2.7 1.4-.5-.9-1.4-1.4-2.5-1.4-.8 0-1.6.2-2.2 1.1v-.9h-1.7v7.7h1.7V82c0-1.3.7-2 1.9-2 1.1 0 1.7.7 1.7 2v4.3H45V82c0-1.3.8-2 1.9-2 1.1 0 1.7.7 1.7 2v4.3h1.6zm25-7.7h-2.7v-2.3h-1.7v2.3h-1.6V80h1.6v3.5c0 1.8.7 2.8 2.7 2.8.7 0 1.6-.2 2.1-.6l-.5-1.4c-.5.3-1 .4-1.5.4-.8 0-1.1-.5-1.1-1.3v-3.5h2.7v-1.4zm14.2-.2c-1 0-1.6.5-2 1.1v-.9h-1.7v7.7h1.7v-4.3c0-1.3.5-2 1.6-2 .3 0 .7 0 1 .2l.5-1.6c-.2-.1-.7-.2-1.1-.2m-21.5.8c-.8-.5-1.9-.8-3.1-.8-1.9 0-3.2.9-3.2 2.5 0 1.3.9 2 2.6 2.3l.8.1c.9.1 1.3.4 1.3.8 0 .6-.6.9-1.7.9-1.2 0-2-.4-2.6-.8l-.8 1.3c.9.7 2.1 1 3.3 1 2.2 0 3.5-1 3.5-2.5 0-1.3-1-2.1-2.7-2.3l-.8-.1c-.7-.1-1.3-.2-1.3-.8 0-.6.5-.9 1.5-.9s1.9.4 2.4.7l.8-1.4zm44.8-.8c-1 0-1.6.5-2 1.1v-.9H109v7.7h1.7v-4.3c0-1.3.5-2 1.6-2 .3 0 .7 0 1 .2l.5-1.6c-.3-.1-.8-.2-1.1-.2m-21.6 4.1c0 2.3 1.6 4 4.1 4 1.2 0 1.9-.3 2.8-.9l-.8-1.3c-.6.5-1.3.7-2 .7-1.3 0-2.3-1-2.3-2.5s1-2.4 2.3-2.5c.7 0 1.4.2 2 .7l.8-1.3c-.8-.7-1.6-.9-2.8-.9-2.4-.1-4.1 1.6-4.1 4m15.7 0v-3.8h-1.7v.9c-.5-.7-1.3-1.1-2.4-1.1-2.2 0-3.8 1.7-3.8 4s1.7 4 3.8 4c1.1 0 1.9-.4 2.4-1.1v.9h1.7v-3.8zm-6.2 0c0-1.3.9-2.5 2.3-2.5s2.3 1.1 2.3 2.5-.9 2.5-2.3 2.5c-1.5-.1-2.3-1.2-2.3-2.5m-20.2-4.1c-2.2 0-3.8 1.6-3.8 4s1.6 4 3.9 4c1.2 0 2.2-.3 3.1-1.1l-.8-1.2c-.6.5-1.5.8-2.2.8-1.1 0-2.1-.5-2.3-1.9H84v-.6c0-2.3-1.4-4-3.6-4m0 1.5c1.1 0 1.8.7 1.9 1.9h-4c.2-1.1.9-1.9 2.1-1.9m41.9 2.6v-6.9h-1.7v4c-.5-.7-1.3-1.1-2.4-1.1-2.2 0-3.8 1.7-3.8 4s1.7 4 3.8 4c1.1 0 1.9-.4 2.4-1.1v.9h1.7v-3.8zm-6.2 0c0-1.3.9-2.5 2.3-2.5s2.3 1.1 2.3 2.5-.9 2.5-2.3 2.5c-1.5-.1-2.3-1.2-2.3-2.5m-56.5 0v-3.8H58v.9c-.5-.7-1.3-1.1-2.4-1.1-2.2 0-3.8 1.7-3.8 4s1.7 4 3.8 4c1.1 0 1.9-.4 2.4-1.1v.9h1.7v-3.8zm-6.2 0c0-1.3.9-2.5 2.3-2.5S58 81 58 82.4s-.9 2.5-2.3 2.5c-1.4-.1-2.3-1.2-2.3-2.5m71.7 2.7c.1 0 .2 0 .3.1.1 0 .2.1.2.2.1.1.1.2.2.2 0 .1.1.2.1.3 0 .1 0 .2-.1.3 0 .1-.1.2-.2.2-.1.1-.2.1-.2.2-.1 0-.2.1-.3.1-.1 0-.2 0-.3-.1-.1 0-.2-.1-.2-.2l-.2-.2c0-.1-.1-.2-.1-.3 0-.1 0-.2.1-.3 0-.1.1-.2.2-.2.1-.1.2-.1.2-.2.1-.1.2-.1.3-.1m0 1.4h.2c.1 0 .1-.1.2-.1.1-.1.1-.1.1-.2v-.4c0-.1-.1-.1-.1-.2-.1-.1-.1-.1-.2-.1h-.4c-.1 0-.1.1-.2.1-.1.1-.1.1-.1.2v.4c0 .1.1.1.1.2.1.1.1.1.2.1 0-.1.1 0 .2 0m0-1c.1 0 .2 0 .2.1 0 0 .1.1.1.2s0 .1-.1.1c0 0-.1.1-.2.1l.2.3h-.2l-.2-.3h-.1v.3h-.2v-.7h.5zm-.2.1v.2h.3v-.2h-.3z" fill="#fff"/><path fill="#f16522" d="M67.3 20h25.3v45.5H67.3z"/><path d="M69 42.7c0-9.2 4.3-17.4 11-22.7-4.9-3.9-11.1-6.2-17.9-6.2-16 0-28.9 12.9-28.9 28.9 0 16 12.9 28.9 28.9 28.9 6.7 0 13-2.3 17.9-6.2-6.7-5.2-11-13.4-11-22.7" fill="#e41b24"/><path d="M126.8 42.7c0 16-12.9 28.9-28.9 28.9-6.7 0-13-2.3-17.9-6.2 6.7-5.3 11-13.5 11-22.7S86.7 25.3 80 20c4.9-3.9 11.1-6.2 17.9-6.2 15.9 0 28.9 13 28.9 28.9m-2.8 18v-.9h.4v-.2h-1v.2h.4v.9h.2zm1.9 0v-1.1h-.3l-.3.8-.3-.8h-.3v1.1h.2v-.8l.3.7h.2l.3-.7v.8h.2z" fill="#f89e1c"/></svg>